<svg width="284" height="63" viewBox="0 0 284 63" fill="none" xmlns="http://www.w3.org/2000/svg">
<path d="M0 15.2615C0 6.83281 6.83282 0 15.2615 0H268.189C276.618 0 283.451 6.83282 283.451 15.2615V47.2615C283.451 55.6902 276.618 62.523 268.189 62.523H15.2615C6.8328 62.523 0 55.6902 0 47.2615V15.2615Z" fill="#C14600"/>
<path d="M58.1474 41.2615H51.8593V21.8378H58.3465C60.2497 21.8378 61.8842 22.2266 63.2499 23.0043C64.6156 23.7757 65.6621 24.8854 66.3892 26.3333C67.1226 27.7749 67.4894 29.5042 67.4894 31.5212C67.4894 33.5445 67.1195 35.2833 66.3797 36.7375C65.6463 38.1918 64.584 39.3109 63.193 40.095C61.802 40.8727 60.1201 41.2615 58.1474 41.2615ZM54.7899 38.7008H57.9861C59.4657 38.7008 60.6955 38.4226 61.6755 37.8662C62.6556 37.3034 63.389 36.491 63.8759 35.4287C64.3627 34.3602 64.6062 33.0577 64.6062 31.5212C64.6062 29.9974 64.3627 28.7044 63.8759 27.6421C63.3953 26.5799 62.6777 25.7737 61.7229 25.2237C60.7682 24.6736 59.5827 24.3985 58.1663 24.3985H54.7899V38.7008ZM88.0062 31.5497C88.0062 33.6235 87.6268 35.4066 86.8681 36.8988C86.1093 38.3846 85.0692 39.5291 83.7478 40.3321C82.4326 41.1288 80.9372 41.5271 79.2617 41.5271C77.5798 41.5271 76.0781 41.1288 74.7567 40.3321C73.4415 39.5291 72.4046 38.3815 71.6458 36.8893C70.8871 35.3971 70.5077 33.6172 70.5077 31.5497C70.5077 29.4758 70.8871 27.6959 71.6458 26.21C72.4046 24.7178 73.4415 23.5734 74.7567 22.7767C76.0781 21.9737 77.5798 21.5722 79.2617 21.5722C80.9372 21.5722 82.4326 21.9737 83.7478 22.7767C85.0692 23.5734 86.1093 24.7178 86.8681 26.21C87.6268 27.6959 88.0062 29.4758 88.0062 31.5497ZM85.104 31.5497C85.104 29.9689 84.8479 28.638 84.3358 27.5568C83.8299 26.4693 83.1344 25.6473 82.2492 25.0909C81.3704 24.5281 80.3745 24.2468 79.2617 24.2468C78.1426 24.2468 77.1435 24.5281 76.2647 25.0909C75.3858 25.6473 74.6903 26.4693 74.1781 27.5568C73.6723 28.638 73.4194 29.9689 73.4194 31.5497C73.4194 33.1304 73.6723 34.4645 74.1781 35.552C74.6903 36.6332 75.3858 37.4552 76.2647 38.0179C77.1435 38.5743 78.1426 38.8525 79.2617 38.8525C80.3745 38.8525 81.3704 38.5743 82.2492 38.0179C83.1344 37.4552 83.8299 36.6332 84.3358 35.552C84.8479 34.4645 85.104 33.1304 85.104 31.5497ZM107.337 21.8378V41.2615H104.644L94.7708 27.0162H94.5906V41.2615H91.66V21.8378H94.3725L104.255 36.1021H104.435V21.8378H107.337ZM113.253 41.2615H110.142L117.132 21.8378H120.518L127.508 41.2615H124.397L118.906 25.3659H118.754L113.253 41.2615ZM113.775 33.6552H123.866V36.1211H113.775V33.6552ZM127.06 24.3606V21.8378H142.093V24.3606H136.032V41.2615H133.111V24.3606H127.06ZM145.414 41.2615V21.8378H157.592V24.3606H148.345V30.2788H156.957V32.7921H148.345V38.7387H157.706V41.2615H145.414ZM184.252 21.8378V41.2615H181.559L171.686 27.0162H171.506V41.2615H168.575V21.8378H171.287L181.17 36.1021H181.35V21.8378H184.252ZM205.4 31.5497C205.4 33.6235 205.021 35.4066 204.262 36.8988C203.503 38.3846 202.463 39.5291 201.141 40.3321C199.826 41.1288 198.331 41.5271 196.655 41.5271C194.974 41.5271 193.472 41.1288 192.15 40.3321C190.835 39.5291 189.798 38.3815 189.04 36.8893C188.281 35.3971 187.901 33.6172 187.901 31.5497C187.901 29.4758 188.281 27.6959 189.04 26.21C189.798 24.7178 190.835 23.5734 192.15 22.7767C193.472 21.9737 194.974 21.5722 196.655 21.5722C198.331 21.5722 199.826 21.9737 201.141 22.7767C202.463 23.5734 203.503 24.7178 204.262 26.21C205.021 27.6959 205.4 29.4758 205.4 31.5497ZM202.498 31.5497C202.498 29.9689 202.242 28.638 201.73 27.5568C201.224 26.4693 200.528 25.6473 199.643 25.0909C198.764 24.5281 197.768 24.2468 196.655 24.2468C195.536 24.2468 194.537 24.5281 193.658 25.0909C192.78 25.6473 192.084 26.4693 191.572 27.5568C191.066 28.638 190.813 29.9689 190.813 31.5497C190.813 33.1304 191.066 34.4645 191.572 35.552C192.084 36.6332 192.78 37.4552 193.658 38.0179C194.537 38.5743 195.536 38.8525 196.655 38.8525C197.768 38.8525 198.764 38.5743 199.643 38.0179C200.528 37.4552 201.224 36.6332 201.73 35.552C202.242 34.4645 202.498 33.1304 202.498 31.5497ZM212.622 41.2615L207.235 21.8378H210.317L214.102 36.8798H214.282L218.218 21.8378H221.272L225.208 36.8893H225.388L229.163 21.8378H232.255L226.858 41.2615H223.908L219.821 26.7127H219.669L215.581 41.2615H212.622Z" fill="#FEF9E1"/>
</svg>
