<svg width="184" height="48" viewBox="0 0 184 48" fill="none" xmlns="http://www.w3.org/2000/svg">
<rect width="184" height="48" rx="4" fill="#FF9D23"/>
<path d="M73.344 28.224H77.024V30H71.104V18.832H73.344V28.224ZM82.3838 30.144C81.5304 30.144 80.7624 29.9573 80.0798 29.584C79.3971 29.2 78.8584 28.6613 78.4638 27.968C78.0798 27.2747 77.8878 26.4747 77.8878 25.568C77.8878 24.6613 78.0851 23.8613 78.4798 23.168C78.8851 22.4747 79.4344 21.9413 80.1278 21.568C80.8211 21.184 81.5944 20.992 82.4478 20.992C83.3011 20.992 84.0744 21.184 84.7678 21.568C85.4611 21.9413 86.0051 22.4747 86.3998 23.168C86.8051 23.8613 87.0078 24.6613 87.0078 25.568C87.0078 26.4747 86.7998 27.2747 86.3837 27.968C85.9784 28.6613 85.4238 29.2 84.7198 29.584C84.0264 29.9573 83.2478 30.144 82.3838 30.144ZM82.3838 28.192C82.7891 28.192 83.1678 28.096 83.5198 27.904C83.8824 27.7013 84.1704 27.4027 84.3838 27.008C84.5971 26.6133 84.7038 26.1333 84.7038 25.568C84.7038 24.7253 84.4798 24.08 84.0318 23.632C83.5944 23.1733 83.0558 22.944 82.4158 22.944C81.7758 22.944 81.2371 23.1733 80.7998 23.632C80.3731 24.08 80.1598 24.7253 80.1598 25.568C80.1598 26.4107 80.3678 27.0613 80.7838 27.52C81.2104 27.968 81.7438 28.192 82.3838 28.192ZM92.1229 20.992C92.7842 20.992 93.3655 21.1253 93.8669 21.392C94.3682 21.648 94.7629 21.984 95.0509 22.4V21.136H97.3069V30.064C97.3069 30.8853 97.1415 31.616 96.8109 32.256C96.4802 32.9067 95.9842 33.4187 95.3229 33.792C94.6615 34.176 93.8615 34.368 92.9229 34.368C91.6642 34.368 90.6295 34.0747 89.8189 33.488C89.0189 32.9013 88.5655 32.1013 88.4589 31.088H90.6829C90.8002 31.4933 91.0509 31.8133 91.4349 32.048C91.8295 32.2933 92.3042 32.416 92.8589 32.416C93.5095 32.416 94.0375 32.2187 94.4429 31.824C94.8482 31.44 95.0509 30.8533 95.0509 30.064V28.688C94.7629 29.104 94.3629 29.4507 93.8509 29.728C93.3495 30.0053 92.7735 30.144 92.1229 30.144C91.3762 30.144 90.6935 29.952 90.0749 29.568C89.4562 29.184 88.9655 28.6453 88.6029 27.952C88.2509 27.248 88.0749 26.4427 88.0749 25.536C88.0749 24.64 88.2509 23.8453 88.6029 23.152C88.9655 22.4587 89.4509 21.9253 90.0589 21.552C90.6775 21.1787 91.3655 20.992 92.1229 20.992ZM95.0509 25.568C95.0509 25.024 94.9442 24.56 94.7309 24.176C94.5175 23.7813 94.2295 23.4827 93.8669 23.28C93.5042 23.0667 93.1149 22.96 92.6989 22.96C92.2829 22.96 91.8989 23.0613 91.5469 23.264C91.1949 23.4667 90.9069 23.7653 90.6829 24.16C90.4695 24.544 90.3629 25.0027 90.3629 25.536C90.3629 26.0693 90.4695 26.5387 90.6829 26.944C90.9069 27.3387 91.1949 27.6427 91.5469 27.856C91.9095 28.0693 92.2935 28.176 92.6989 28.176C93.1149 28.176 93.5042 28.0747 93.8669 27.872C94.2295 27.6587 94.5175 27.36 94.7309 26.976C94.9442 26.5813 95.0509 26.112 95.0509 25.568ZM100.631 20.08C100.236 20.08 99.9053 19.9573 99.6386 19.712C99.3826 19.456 99.2546 19.1413 99.2546 18.768C99.2546 18.3947 99.3826 18.0853 99.6386 17.84C99.9053 17.584 100.236 17.456 100.631 17.456C101.025 17.456 101.351 17.584 101.607 17.84C101.873 18.0853 102.007 18.3947 102.007 18.768C102.007 19.1413 101.873 19.456 101.607 19.712C101.351 19.9573 101.025 20.08 100.631 20.08ZM101.735 21.136V30H99.4946V21.136H101.735ZM108.86 21.008C109.916 21.008 110.769 21.344 111.42 22.016C112.07 22.6773 112.396 23.6053 112.396 24.8V30H110.156V25.104C110.156 24.4 109.98 23.8613 109.628 23.488C109.276 23.104 108.796 22.912 108.188 22.912C107.569 22.912 107.078 23.104 106.716 23.488C106.364 23.8613 106.188 24.4 106.188 25.104V30H103.948V21.136H106.188V22.24C106.486 21.856 106.865 21.5573 107.324 21.344C107.793 21.12 108.305 21.008 108.86 21.008Z" fill="#FEF9E1"/>
</svg>
