<svg width="55" height="53" viewBox="0 0 55 53" fill="none" xmlns="http://www.w3.org/2000/svg">
<g clip-path="url(#clip0_98_557)">
<path d="M16.4419 50.7469C13.5814 50.1145 10.3534 47.0703 7.80179 42.5848C6.17672 39.7317 4.78696 36.2831 3.67662 32.3344C2.39715 27.7974 0.911794 17.9955 0.367653 12.2232L2.09567 13.8189C2.63245 14.3189 2.9707 14.9954 3.05159 15.7234C4.09575 25.7826 6.50762 35.8492 9.72099 41.4965C12.3902 46.1805 15.2139 48.2468 16.9639 48.6071H16.9787L25.1628 50.416C33.119 52.1734 43.9724 37.1655 50.2006 25.2532C48.3697 25.8709 46.3255 26.3709 44.2225 26.7165C40.2296 27.3636 36.0971 27.4665 31.9278 27.018C26.9791 26.4812 22.1112 25.1723 17.4566 23.1134C12.074 20.7383 6.96352 17.3558 2.27215 13.0615L0.963266 11.8629L2.61775 11.2158C4.86049 10.3408 13.052 7.58332 24.4201 8.88484C29.4277 9.4584 34.2662 10.7526 38.8031 12.7379C44.0533 15.0395 48.9138 18.2749 53.2523 22.356L53.767 22.9443L53.3111 23.9958C51.8625 26.9444 47.4432 35.4669 41.4282 42.7466C35.1412 50.3278 29.5159 53.6294 24.6849 52.5632L16.508 50.7616C16.486 50.7543 16.4639 50.7543 16.4419 50.7469ZM5.13991 12.6644C13.2873 19.6721 22.3686 23.7531 32.1631 24.8193C39.6634 25.6282 46.252 24.4076 50.4654 22.8119C42.9283 16.1499 34.0897 12.2085 24.1628 11.0688C16.5742 10.2084 9.66952 11.2379 5.13991 12.6644ZM36.3839 24.5179C35.1044 24.459 34.0014 23.5913 33.6411 22.3634C32.3984 18.1205 30.7219 15.4954 28.6041 15.0322C28.5747 15.0248 28.5453 15.0175 28.5233 15.0175C26.0379 14.5321 23.0671 16.7528 20.8685 19.2603C19.9714 20.2824 18.5008 20.5765 17.2801 19.9735C18.089 18.8338 20.3244 16.3263 22.5671 14.7086C24.8172 13.0909 26.957 12.4659 28.9497 12.8556C28.9939 12.863 29.0453 12.8777 29.0895 12.885C32.4646 13.6277 35.1853 18.1205 36.7001 24.5399L36.3839 24.5179ZM38.5457 12.0688C37.656 11.7306 36.9721 10.9952 36.7148 10.0761C35.4427 5.5097 33.6117 2.85518 31.391 2.36986C31.3616 2.36251 31.3322 2.35516 31.3101 2.35516C28.6262 1.82572 25.5084 4.34789 23.3024 7.04653C22.6995 7.78921 21.7656 8.18629 20.8097 8.13481L19.8905 8.08334C20.6994 6.94359 23.1113 3.65668 25.354 2.03897C27.6041 0.42125 29.7439 -0.203777 31.7366 0.185946C35.178 0.855092 37.8398 5.87001 39.3767 12.385L38.5457 12.0688Z" fill="#C14600"/>
</g>
<defs>
<clipPath id="clip0_98_557">
<rect width="54.1199" height="52.7228" fill="white"/>
</clipPath>
</defs>
</svg>
