<svg width="265" height="65" viewBox="0 0 265 65" fill="none" xmlns="http://www.w3.org/2000/svg">
<path d="M1 16.2615C1 7.83281 7.83282 1 16.2615 1H248.739C257.167 1 264 7.83282 264 16.2615V48.2615C264 56.6902 257.167 63.523 248.738 63.523H16.2615C7.8328 63.523 1 56.6902 1 48.2615V16.2615Z" stroke="white" stroke-width="1.90769"/>
<path d="M35.2508 29.1543H32.2917C32.1779 28.522 31.9661 27.9656 31.6563 27.4851C31.3465 27.0045 30.9671 26.5967 30.5182 26.2616C30.0693 25.9265 29.5666 25.6736 29.0102 25.5029C28.4601 25.3321 27.8752 25.2468 27.2556 25.2468C26.1365 25.2468 25.1343 25.5281 24.2491 26.0909C23.3702 26.6536 22.6747 27.4787 22.1625 28.5663C21.6567 29.6538 21.4038 30.9816 21.4038 32.5497C21.4038 34.1304 21.6567 35.4645 22.1625 36.552C22.6747 37.6395 23.3734 38.4615 24.2586 39.0179C25.1438 39.5743 26.1396 39.8525 27.2461 39.8525C27.8594 39.8525 28.4411 39.7703 28.9912 39.6059C29.5476 39.4352 30.0503 39.1855 30.4992 38.8567C30.9481 38.5279 31.3275 38.1264 31.6373 37.6522C31.9535 37.1717 32.1716 36.6216 32.2917 36.0019L35.2508 36.0114C35.0928 36.9662 34.7861 37.845 34.3308 38.648C33.8819 39.4447 33.3034 40.1339 32.5952 40.7156C31.8934 41.291 31.0904 41.7367 30.1862 42.0529C29.2821 42.369 28.2957 42.5271 27.2271 42.5271C25.5453 42.5271 24.0468 42.1288 22.7316 41.3321C21.4165 40.5291 20.3795 39.3815 19.6208 37.8893C18.8684 36.3971 18.4921 34.6172 18.4921 32.5497C18.4921 30.4758 18.8715 28.6959 19.6303 27.21C20.389 25.7178 21.4259 24.5734 22.7411 23.7767C24.0562 22.9737 25.5516 22.5722 27.2271 22.5722C28.2578 22.5722 29.2188 22.7208 30.1104 23.018C31.0082 23.3088 31.8144 23.7388 32.5288 24.3078C33.2433 24.8706 33.8345 25.5598 34.3024 26.3754C34.7703 27.1847 35.0864 28.111 35.2508 29.1543ZM41.3658 33.6119V42.2615H38.53V22.8378H41.3279V30.0648H41.5081C41.8495 29.2808 42.3711 28.658 43.073 28.1964C43.7748 27.7348 44.6916 27.504 45.8234 27.504C46.8224 27.504 47.695 27.7095 48.441 28.1205C49.1935 28.5315 49.7752 29.1448 50.1861 29.9605C50.6035 30.7698 50.8121 31.7814 50.8121 32.9954V42.2615H47.9763V33.3369C47.9763 32.2683 47.7013 31.44 47.1512 30.852C46.6011 30.2576 45.836 29.9605 44.856 29.9605C44.1858 29.9605 43.5851 30.1027 43.054 30.3872C42.5292 30.6718 42.115 31.0891 41.8116 31.6392C41.5144 32.1829 41.3658 32.8405 41.3658 33.6119ZM58.8358 42.584C57.9127 42.584 57.078 42.4133 56.3319 42.0718C55.5859 41.7241 54.9947 41.2214 54.5584 40.5639C54.1284 39.9063 53.9135 39.1001 53.9135 38.1454C53.9135 37.3234 54.0715 36.6469 54.3877 36.1157C54.7038 35.5846 55.1306 35.1642 55.668 34.8543C56.2055 34.5445 56.8062 34.3106 57.4701 34.1525C58.134 33.9944 58.8105 33.8743 59.4997 33.7921C60.3722 33.6909 61.0804 33.6087 61.6242 33.5455C62.1679 33.476 62.5631 33.3653 62.8097 33.2136C63.0563 33.0618 63.1796 32.8152 63.1796 32.4738V32.4074C63.1796 31.5791 62.9456 30.9373 62.4777 30.4821C62.0162 30.0268 61.327 29.7992 60.4102 29.7992C59.4554 29.7992 58.703 30.011 58.1529 30.4347C57.6092 30.852 57.233 31.3167 57.0243 31.8289L54.3592 31.2219C54.6754 30.3367 55.1369 29.6222 55.7439 29.0784C56.3572 28.5283 57.0622 28.13 57.8589 27.8834C58.6556 27.6305 59.4934 27.504 60.3722 27.504C60.9539 27.504 61.5704 27.5736 62.2217 27.7127C62.8792 27.8455 63.4926 28.0921 64.0616 28.4525C64.637 28.8129 65.108 29.3282 65.4748 29.9984C65.8415 30.6623 66.0249 31.5254 66.0249 32.5876V42.2615H63.2555V40.2698H63.1416C62.9583 40.6366 62.6832 40.997 62.3165 41.351C61.9498 41.7051 61.4787 41.9991 60.9034 42.2331C60.328 42.467 59.6388 42.584 58.8358 42.584ZM59.4523 40.3078C60.2363 40.3078 60.9065 40.1529 61.4629 39.843C62.0257 39.5332 62.4525 39.1286 62.7433 38.6291C63.0405 38.1232 63.1891 37.5826 63.1891 37.0073V35.1294C63.0879 35.2305 62.8919 35.3254 62.601 35.4139C62.3165 35.4961 61.9909 35.5688 61.6242 35.632C61.2574 35.6889 60.9002 35.7427 60.5524 35.7933C60.2047 35.8375 59.9138 35.8755 59.6799 35.9071C59.1298 35.9766 58.6271 36.0936 58.1719 36.258C57.723 36.4224 57.3626 36.6595 57.0907 36.9693C56.8251 37.2728 56.6923 37.6775 56.6923 38.1833C56.6923 38.8851 56.9516 39.4163 57.4701 39.7767C57.9885 40.1307 58.6493 40.3078 59.4523 40.3078ZM72.6378 33.6119V42.2615H69.802V27.6937H72.5239V30.0648H72.7041C73.0393 29.2934 73.564 28.6738 74.2785 28.2059C74.9993 27.738 75.9067 27.504 77.0005 27.504C77.9932 27.504 78.8626 27.7127 79.6087 28.13C80.3548 28.541 80.9333 29.1543 81.3443 29.9699C81.7553 30.7856 81.9608 31.7941 81.9608 32.9954V42.2615H79.125V33.3369C79.125 32.2809 78.8499 31.4558 78.2999 30.8615C77.7498 30.2608 76.9942 29.9605 76.0331 29.9605C75.3755 29.9605 74.7907 30.1027 74.2785 30.3872C73.7727 30.6718 73.3712 31.0891 73.074 31.6392C72.7832 32.1829 72.6378 32.8405 72.6378 33.6119ZM91.8718 48.028C90.7147 48.028 89.7189 47.8762 88.8843 47.5727C88.056 47.2692 87.3794 46.8677 86.8546 46.3682C86.3299 45.8687 85.9378 45.3218 85.6786 44.7274L88.1161 43.7221C88.2868 44.0003 88.5144 44.2943 88.7989 44.6041C89.0898 44.9203 89.4818 45.189 89.975 45.4103C90.4745 45.6316 91.1162 45.7423 91.9003 45.7423C92.9752 45.7423 93.8635 45.4799 94.5653 44.9551C95.2672 44.4366 95.6181 43.6083 95.6181 42.4702V39.6059H95.4379C95.2672 39.9158 95.0206 40.2604 94.6981 40.6397C94.382 41.0191 93.9457 41.3479 93.3893 41.6261C92.8329 41.9043 92.1089 42.0434 91.2174 42.0434C90.0666 42.0434 89.0297 41.7747 88.1066 41.2372C87.1898 40.6935 86.4626 39.8936 85.9252 38.8377C85.3941 37.7755 85.1285 36.4698 85.1285 34.9207C85.1285 33.3716 85.3909 32.0438 85.9157 30.9373C86.4468 29.8308 87.174 28.9836 88.0971 28.3956C89.0202 27.8012 90.0666 27.504 91.2364 27.504C92.1405 27.504 92.8708 27.6558 93.4272 27.9593C93.9836 28.2565 94.4168 28.6042 94.7266 29.0025C95.0427 29.4009 95.2862 29.7518 95.4569 30.0553H95.6655V27.6937H98.4444V42.584C98.4444 43.8359 98.1536 44.8634 97.5719 45.6664C96.9902 46.4694 96.203 47.0637 95.2103 47.4494C94.2239 47.8351 93.1111 48.028 91.8718 48.028ZM91.8434 39.6913C92.659 39.6913 93.3482 39.5016 93.9109 39.1222C94.48 38.7366 94.9099 38.1865 95.2008 37.472C95.498 36.7512 95.6466 35.8881 95.6466 34.8828C95.6466 33.9027 95.5011 33.0397 95.2103 32.2936C94.9194 31.5475 94.4926 30.9658 93.9299 30.5485C93.3672 30.1248 92.6717 29.913 91.8434 29.913C90.9898 29.913 90.2785 30.1343 89.7094 30.5769C89.1404 31.0132 88.7104 31.6076 88.4196 32.36C88.135 33.1124 87.9928 33.9533 87.9928 34.8828C87.9928 35.8375 88.1382 36.6753 88.429 37.3961C88.7199 38.1169 89.1498 38.6796 89.7189 39.0843C90.2943 39.489 91.0024 39.6913 91.8434 39.6913ZM108.526 42.5555C107.091 42.5555 105.855 42.2489 104.818 41.6356C103.787 41.0159 102.991 40.1465 102.428 39.0274C101.871 37.9019 101.593 36.5836 101.593 35.0725C101.593 33.5803 101.871 32.2651 102.428 31.127C102.991 29.9889 103.775 29.1005 104.78 28.4619C105.792 27.8233 106.974 27.504 108.327 27.504C109.149 27.504 109.946 27.64 110.717 27.9119C111.488 28.1837 112.181 28.6105 112.794 29.1922C113.407 29.7739 113.891 30.5295 114.245 31.459C114.599 32.3821 114.776 33.5044 114.776 34.8259V35.8312H103.196V33.7067H111.997C111.997 32.9606 111.846 32.2999 111.542 31.7245C111.239 31.1428 110.812 30.6844 110.262 30.3493C109.718 30.0142 109.079 29.8466 108.346 29.8466C107.549 29.8466 106.854 30.0427 106.259 30.4347C105.671 30.8204 105.216 31.3262 104.894 31.9521C104.578 32.5718 104.419 33.2452 104.419 33.9723V35.632C104.419 36.6058 104.59 37.434 104.932 38.1169C105.279 38.7998 105.763 39.3214 106.383 39.6818C107.002 40.0359 107.726 40.2129 108.555 40.2129C109.092 40.2129 109.582 40.1371 110.025 39.9853C110.467 39.8272 110.85 39.5933 111.172 39.2835C111.495 38.9737 111.741 38.5911 111.912 38.1359L114.596 38.6196C114.381 39.4099 113.995 40.1023 113.439 40.6966C112.889 41.2847 112.197 41.7431 111.362 42.0718C110.534 42.3943 109.588 42.5555 108.526 42.5555ZM125.218 42.2615V22.8378H132.142C133.653 22.8378 134.905 23.1128 135.898 23.6629C136.89 24.213 137.633 24.9654 138.127 25.9202C138.62 26.8686 138.866 27.9371 138.866 29.1258C138.866 30.3209 138.617 31.3957 138.117 32.3505C137.624 33.2989 136.878 34.0513 135.879 34.6077C134.886 35.1578 133.637 35.4329 132.132 35.4329H127.371V32.948H131.867C132.822 32.948 133.596 32.7836 134.191 32.4548C134.785 32.1197 135.221 31.6645 135.499 31.0891C135.778 30.5137 135.917 29.8593 135.917 29.1258C135.917 28.3924 135.778 27.7411 135.499 27.1721C135.221 26.603 134.782 26.1573 134.181 25.8348C133.587 25.5123 132.803 25.3511 131.829 25.3511H128.149V42.2615H125.218ZM146.183 42.584C145.26 42.584 144.426 42.4133 143.68 42.0718C142.933 41.7241 142.342 41.2214 141.906 40.5639C141.476 39.9063 141.261 39.1001 141.261 38.1454C141.261 37.3234 141.419 36.6469 141.735 36.1157C142.051 35.5846 142.478 35.1642 143.016 34.8543C143.553 34.5445 144.154 34.3106 144.818 34.1525C145.482 33.9944 146.158 33.8743 146.847 33.7921C147.72 33.6909 148.428 33.6087 148.972 33.5455C149.516 33.476 149.911 33.3653 150.157 33.2136C150.404 33.0618 150.527 32.8152 150.527 32.4738V32.4074C150.527 31.5791 150.293 30.9373 149.825 30.4821C149.364 30.0268 148.675 29.7992 147.758 29.7992C146.803 29.7992 146.051 30.011 145.501 30.4347C144.957 30.852 144.581 31.3167 144.372 31.8289L141.707 31.2219C142.023 30.3367 142.485 29.6222 143.092 29.0784C143.705 28.5283 144.41 28.13 145.207 27.8834C146.003 27.6305 146.841 27.504 147.72 27.504C148.302 27.504 148.918 27.5736 149.569 27.7127C150.227 27.8455 150.84 28.0921 151.409 28.4525C151.985 28.8129 152.456 29.3282 152.822 29.9984C153.189 30.6623 153.372 31.5254 153.372 32.5876V42.2615H150.603V40.2698H150.489C150.306 40.6366 150.031 40.997 149.664 41.351C149.297 41.7051 148.826 41.9991 148.251 42.2331C147.676 42.467 146.986 42.584 146.183 42.584ZM146.8 40.3078C147.584 40.3078 148.254 40.1529 148.811 39.843C149.373 39.5332 149.8 39.1286 150.091 38.6291C150.388 38.1232 150.537 37.5826 150.537 37.0073V35.1294C150.436 35.2305 150.24 35.3254 149.949 35.4139C149.664 35.4961 149.338 35.5688 148.972 35.632C148.605 35.6889 148.248 35.7427 147.9 35.7933C147.552 35.8375 147.261 35.8755 147.028 35.9071C146.477 35.9766 145.975 36.0936 145.52 36.258C145.071 36.4224 144.71 36.6595 144.438 36.9693C144.173 37.2728 144.04 37.6775 144.04 38.1833C144.04 38.8851 144.299 39.4163 144.818 39.7767C145.336 40.1307 145.997 40.3078 146.8 40.3078ZM168.066 31.2503L165.496 31.7056C165.388 31.3768 165.218 31.0638 164.984 30.7666C164.756 30.4694 164.446 30.226 164.054 30.0363C163.662 29.8466 163.172 29.7518 162.584 29.7518C161.781 29.7518 161.111 29.932 160.573 30.2924C160.036 30.6465 159.767 31.1049 159.767 31.6676C159.767 32.1545 159.947 32.5465 160.308 32.8437C160.668 33.1408 161.25 33.3843 162.053 33.574L164.367 34.1051C165.708 34.4149 166.707 34.8923 167.364 35.5372C168.022 36.1821 168.35 37.0199 168.35 38.0505C168.35 38.9231 168.098 39.7008 167.592 40.3837C167.092 41.0602 166.394 41.5913 165.496 41.977C164.604 42.3627 163.57 42.5555 162.394 42.5555C160.763 42.5555 159.432 42.2078 158.401 41.5123C157.371 40.8104 156.739 39.8146 156.505 38.5247L159.246 38.1074C159.416 38.8219 159.767 39.3625 160.298 39.7292C160.829 40.0896 161.522 40.2698 162.375 40.2698C163.305 40.2698 164.048 40.077 164.604 39.6913C165.161 39.2993 165.439 38.8219 165.439 38.2592C165.439 37.8039 165.268 37.4214 164.927 37.1116C164.592 36.8018 164.076 36.5678 163.381 36.4097L160.915 35.8691C159.555 35.5593 158.55 35.0661 157.899 34.3896C157.254 33.7131 156.931 32.8563 156.931 31.8194C156.931 30.9595 157.172 30.207 157.652 29.5621C158.133 28.9172 158.797 28.4145 159.644 28.0541C160.491 27.6874 161.462 27.504 162.556 27.504C164.13 27.504 165.369 27.8455 166.273 28.5283C167.178 29.2049 167.775 30.1122 168.066 31.2503ZM182.385 31.2503L179.815 31.7056C179.707 31.3768 179.536 31.0638 179.302 30.7666C179.075 30.4694 178.765 30.226 178.373 30.0363C177.981 29.8466 177.491 29.7518 176.903 29.7518C176.1 29.7518 175.43 29.932 174.892 30.2924C174.355 30.6465 174.086 31.1049 174.086 31.6676C174.086 32.1545 174.266 32.5465 174.627 32.8437C174.987 33.1408 175.569 33.3843 176.372 33.574L178.686 34.1051C180.026 34.4149 181.025 34.8923 181.683 35.5372C182.341 36.1821 182.669 37.0199 182.669 38.0505C182.669 38.9231 182.416 39.7008 181.911 40.3837C181.411 41.0602 180.712 41.5913 179.815 41.977C178.923 42.3627 177.889 42.5555 176.713 42.5555C175.082 42.5555 173.751 42.2078 172.72 41.5123C171.69 40.8104 171.057 39.8146 170.824 38.5247L173.564 38.1074C173.735 38.8219 174.086 39.3625 174.617 39.7292C175.148 40.0896 175.841 40.2698 176.694 40.2698C177.624 40.2698 178.367 40.077 178.923 39.6913C179.479 39.2993 179.758 38.8219 179.758 38.2592C179.758 37.8039 179.587 37.4214 179.246 37.1116C178.91 36.8018 178.395 36.5678 177.7 36.4097L175.234 35.8691C173.874 35.5593 172.869 35.0661 172.218 34.3896C171.573 33.7131 171.25 32.8563 171.25 31.8194C171.25 30.9595 171.491 30.207 171.971 29.5621C172.452 28.9172 173.116 28.4145 173.963 28.0541C174.81 27.6874 175.781 27.504 176.874 27.504C178.449 27.504 179.688 27.8455 180.592 28.5283C181.496 29.2049 182.094 30.1122 182.385 31.2503ZM188.946 42.2615L184.659 27.6937H187.589L190.444 38.392H190.586L193.451 27.6937H196.381L199.226 38.3445H199.369L202.205 27.6937H205.135L200.858 42.2615H197.965L195.006 31.7435H194.788L191.829 42.2615H188.946ZM213.519 42.5555C212.154 42.5555 210.962 42.2426 209.944 41.6166C208.926 40.9906 208.135 40.1149 207.573 38.9895C207.01 37.864 206.729 36.5489 206.729 35.044C206.729 33.5329 207.01 32.2114 207.573 31.0796C208.135 29.9478 208.926 29.0689 209.944 28.443C210.962 27.817 212.154 27.504 213.519 27.504C214.885 27.504 216.077 27.817 217.095 28.443C218.113 29.0689 218.903 29.9478 219.466 31.0796C220.029 32.2114 220.31 33.5329 220.31 35.044C220.31 36.5489 220.029 37.864 219.466 38.9895C218.903 40.1149 218.113 40.9906 217.095 41.6166C216.077 42.2426 214.885 42.5555 213.519 42.5555ZM213.529 40.175C214.414 40.175 215.147 39.9411 215.729 39.4732C216.311 39.0053 216.741 38.3825 217.019 37.6048C217.303 36.8271 217.446 35.9703 217.446 35.0345C217.446 34.1051 217.303 33.2515 217.019 32.4738C216.741 31.6898 216.311 31.0606 215.729 30.5864C215.147 30.1122 214.414 29.8751 213.529 29.8751C212.637 29.8751 211.897 30.1122 211.309 30.5864C210.728 31.0606 210.295 31.6898 210.01 32.4738C209.732 33.2515 209.593 34.1051 209.593 35.0345C209.593 35.9703 209.732 36.8271 210.01 37.6048C210.295 38.3825 210.728 39.0053 211.309 39.4732C211.897 39.9411 212.637 40.175 213.529 40.175ZM223.475 42.2615V27.6937H226.216V30.0079H226.368C226.634 29.2238 227.101 28.6074 227.772 28.1584C228.448 27.7032 229.213 27.4756 230.067 27.4756C230.244 27.4756 230.453 27.4819 230.693 27.4945C230.939 27.5072 231.132 27.523 231.271 27.542V30.2545C231.158 30.2229 230.955 30.1881 230.664 30.1501C230.374 30.1059 230.083 30.0838 229.792 30.0838C229.122 30.0838 228.524 30.226 227.999 30.5105C227.481 30.7887 227.07 31.1776 226.766 31.6771C226.463 32.1703 226.311 32.733 226.311 33.3653V42.2615H223.475ZM238.657 42.5461C237.481 42.5461 236.432 42.2457 235.508 41.6451C234.592 41.0381 233.871 40.175 233.346 39.0559C232.828 37.9304 232.568 36.5805 232.568 35.0061C232.568 33.4317 232.831 32.0849 233.356 30.9658C233.887 29.8466 234.614 28.9899 235.537 28.3956C236.46 27.8012 237.506 27.504 238.676 27.504C239.58 27.504 240.308 27.6558 240.858 27.9593C241.414 28.2565 241.844 28.6042 242.147 29.0025C242.457 29.4009 242.698 29.7518 242.868 30.0553H243.039V22.8378H245.875V42.2615H243.105V39.9948H242.868C242.698 40.3046 242.451 40.6587 242.128 41.057C241.812 41.4554 241.376 41.8031 240.82 42.1003C240.263 42.3975 239.542 42.5461 238.657 42.5461ZM239.283 40.1276C240.099 40.1276 240.788 39.9126 241.351 39.4826C241.92 39.0464 242.35 38.4425 242.641 37.6712C242.938 36.8998 243.086 36.0019 243.086 34.9776C243.086 33.966 242.941 33.0808 242.65 32.322C242.359 31.5633 241.932 30.9721 241.37 30.5485C240.807 30.1248 240.112 29.913 239.283 29.913C238.43 29.913 237.718 30.1343 237.149 30.5769C236.58 31.0195 236.15 31.6234 235.859 32.3884C235.575 33.1535 235.433 34.0166 235.433 34.9776C235.433 35.9513 235.578 36.8271 235.869 37.6048C236.16 38.3825 236.59 38.999 237.159 39.4542C237.734 39.9031 238.442 40.1276 239.283 40.1276Z" fill="white"/>
</svg>
