<svg width="218" height="63" viewBox="0 0 218 63" fill="none" xmlns="http://www.w3.org/2000/svg">
<path d="M0 15.2615C0 6.83281 6.83282 0 15.2615 0H202.738C211.167 0 218 6.83282 218 15.2615V47.2615C218 55.6902 211.167 62.523 202.738 62.523H15.2615C6.83281 62.523 0 55.6902 0 47.2615V15.2615Z" fill="#FFAF49"/>
<path d="M30.2279 26.9403C30.1267 26.0425 29.7094 25.347 28.9759 24.8538C28.2425 24.3543 27.3194 24.1045 26.2065 24.1045C25.4099 24.1045 24.7207 24.231 24.139 24.4839C23.5573 24.7305 23.1052 25.0719 22.7827 25.5082C22.4666 25.9381 22.3085 26.4282 22.3085 26.9782C22.3085 27.4398 22.416 27.8382 22.631 28.1733C22.8523 28.5084 23.14 28.7897 23.494 29.0174C23.8545 29.2387 24.2401 29.4252 24.6511 29.5769C25.0621 29.7224 25.4573 29.8425 25.8367 29.9373L27.7335 30.4305C28.3531 30.5823 28.9886 30.7878 29.6398 31.047C30.2911 31.3062 30.8949 31.6477 31.4513 32.0713C32.0077 32.4949 32.4567 33.0197 32.7981 33.6457C33.1459 34.2716 33.3197 35.0209 33.3197 35.8934C33.3197 36.9936 33.0352 37.9705 32.4662 38.8241C31.9034 39.6777 31.0846 40.351 30.0097 40.8442C28.9412 41.3374 27.6482 41.584 26.1307 41.584C24.6764 41.584 23.4182 41.3532 22.3559 40.8916C21.2937 40.4301 20.4622 39.7757 19.8616 38.9284C19.2609 38.0748 18.929 37.0632 18.8657 35.8934H21.8059C21.8628 36.5953 22.0904 37.1801 22.4887 37.648C22.8934 38.1096 23.4087 38.4542 24.0347 38.6818C24.6669 38.9031 25.3593 39.0138 26.1117 39.0138C26.94 39.0138 27.6766 38.8841 28.3215 38.6249C28.9728 38.3594 29.4849 37.9926 29.858 37.5247C30.231 37.0505 30.4176 36.4973 30.4176 35.865C30.4176 35.2896 30.2532 34.8186 29.9244 34.4518C29.6019 34.0851 29.1625 33.7816 28.6061 33.5414C28.056 33.3011 27.4332 33.0893 26.7377 32.9059L24.4425 32.2799C22.8871 31.8563 21.6541 31.2335 20.7436 30.4115C19.8394 29.5896 19.3874 28.502 19.3874 27.149C19.3874 26.0298 19.6909 25.0529 20.2979 24.2183C20.9048 23.3837 21.7268 22.7356 22.7638 22.2741C23.8007 21.8062 24.9704 21.5722 26.2729 21.5722C27.5881 21.5722 28.7483 21.803 29.7537 22.2646C30.7653 22.7261 31.562 23.3616 32.1437 24.1709C32.7254 24.9739 33.0289 25.897 33.0542 26.9403H30.2279ZM40.8336 41.584C39.9105 41.584 39.0759 41.4133 38.3298 41.0718C37.5837 40.7241 36.9925 40.2214 36.5562 39.5639C36.1263 38.9063 35.9113 38.1001 35.9113 37.1454C35.9113 36.3234 36.0694 35.6469 36.3855 35.1157C36.7017 34.5846 37.1285 34.1642 37.6659 33.8543C38.2033 33.5445 38.804 33.3106 39.4679 33.1525C40.1318 32.9944 40.8083 32.8743 41.4975 32.7921C42.3701 32.6909 43.0782 32.6087 43.622 32.5455C44.1658 32.476 44.5609 32.3653 44.8075 32.2136C45.0541 32.0618 45.1774 31.8152 45.1774 31.4738V31.4074C45.1774 30.5791 44.9435 29.9373 44.4756 29.4821C44.014 29.0268 43.3248 28.7992 42.408 28.7992C41.4533 28.7992 40.7009 29.011 40.1508 29.4347C39.607 29.852 39.2308 30.3167 39.0221 30.8289L36.3571 30.2219C36.6732 29.3367 37.1348 28.6222 37.7418 28.0784C38.3551 27.5283 39.0601 27.13 39.8568 26.8834C40.6534 26.6305 41.4912 26.504 42.3701 26.504C42.9518 26.504 43.5683 26.5736 44.2195 26.7127C44.8771 26.8455 45.4904 27.0921 46.0595 27.4525C46.6348 27.8129 47.1059 28.3282 47.4726 28.9984C47.8393 29.6623 48.0227 30.5254 48.0227 31.5876V41.2615H45.2533V39.2698H45.1395C44.9561 39.6366 44.6811 39.997 44.3144 40.351C43.9476 40.7051 43.4766 40.9991 42.9012 41.2331C42.3258 41.467 41.6366 41.584 40.8336 41.584ZM41.4501 39.3078C42.2341 39.3078 42.9044 39.1529 43.4608 38.843C44.0235 38.5332 44.4503 38.1286 44.7412 37.6291C45.0383 37.1232 45.1869 36.5826 45.1869 36.0073V34.1294C45.0857 34.2305 44.8897 34.3254 44.5989 34.4139C44.3144 34.4961 43.9887 34.5688 43.622 34.632C43.2553 34.6889 42.898 34.7427 42.5503 34.7933C42.2025 34.8375 41.9117 34.8755 41.6777 34.9071C41.1276 34.9766 40.625 35.0936 40.1697 35.258C39.7208 35.4224 39.3604 35.6595 39.0885 35.9693C38.823 36.2728 38.6902 36.6775 38.6902 37.1833C38.6902 37.8851 38.9494 38.4163 39.4679 38.7767C39.9864 39.1307 40.6471 39.3078 41.4501 39.3078ZM63.7405 26.6937L58.4578 41.2615H55.4228L50.1306 26.6937H53.175L56.8644 37.9041H57.0161L60.696 26.6937H63.7405ZM72.1886 41.5555C70.7533 41.5555 69.5172 41.2489 68.4802 40.6356C67.4496 40.0159 66.6529 39.1465 66.0902 38.0274C65.5338 36.9019 65.2556 35.5836 65.2556 34.0725C65.2556 32.5803 65.5338 31.2651 66.0902 30.127C66.6529 28.9889 67.437 28.1005 68.4423 27.4619C69.454 26.8233 70.6363 26.504 71.9894 26.504C72.8114 26.504 73.6081 26.64 74.3794 26.9119C75.1508 27.1837 75.8432 27.6105 76.4565 28.1922C77.0698 28.7739 77.5535 29.5295 77.9076 30.459C78.2617 31.3821 78.4387 32.5044 78.4387 33.8259V34.8312H66.8584V32.7067H75.6598C75.6598 31.9606 75.5081 31.2999 75.2046 30.7245C74.9011 30.1428 74.4743 29.6844 73.9242 29.3493C73.3804 29.0142 72.7418 28.8466 72.0084 28.8466C71.2117 28.8466 70.5162 29.0427 69.9218 29.4347C69.3338 29.8204 68.8786 30.3262 68.5561 30.9521C68.24 31.5718 68.0819 32.2452 68.0819 32.9723V34.632C68.0819 35.6058 68.2526 36.434 68.5941 37.1169C68.9418 37.7998 69.4255 38.3214 70.0451 38.6818C70.6648 39.0359 71.3887 39.2129 72.217 39.2129C72.7545 39.2129 73.2445 39.1371 73.6871 38.9853C74.1297 38.8272 74.5122 38.5933 74.8347 38.2835C75.1572 37.9737 75.4037 37.5911 75.5745 37.1359L78.2585 37.6196C78.0435 38.4099 77.6578 39.1023 77.1014 39.6966C76.5513 40.2847 75.859 40.7431 75.0244 41.0718C74.1961 41.3943 73.2508 41.5555 72.1886 41.5555ZM105.014 28.1543H102.055C101.941 27.522 101.729 26.9656 101.419 26.4851C101.109 26.0045 100.73 25.5967 100.281 25.2616C99.832 24.9265 99.3294 24.6736 98.7729 24.5029C98.2229 24.3321 97.638 24.2468 97.0184 24.2468C95.8992 24.2468 94.8971 24.5281 94.0119 25.0909C93.133 25.6536 92.4375 26.4787 91.9253 27.5663C91.4195 28.6538 91.1666 29.9816 91.1666 31.5497C91.1666 33.1304 91.4195 34.4645 91.9253 35.552C92.4375 36.6395 93.1361 37.4615 94.0213 38.0179C94.9065 38.5743 95.9024 38.8525 97.0089 38.8525C97.6222 38.8525 98.2039 38.7703 98.754 38.6059C99.3104 38.4352 99.8131 38.1855 100.262 37.8567C100.711 37.5279 101.09 37.1264 101.4 36.6522C101.716 36.1717 101.934 35.6216 102.055 35.0019L105.014 35.0114C104.856 35.9662 104.549 36.845 104.094 37.648C103.645 38.4447 103.066 39.1339 102.358 39.7156C101.656 40.291 100.853 40.7367 99.949 41.0529C99.0448 41.369 98.0585 41.5271 96.9899 41.5271C95.308 41.5271 93.8095 41.1288 92.4944 40.3321C91.1792 39.5291 90.1423 38.3815 89.3835 36.8893C88.6311 35.3971 88.2549 33.6172 88.2549 31.5497C88.2549 29.4758 88.6343 27.6959 89.393 26.21C90.1518 24.7178 91.1887 23.5734 92.5039 22.7767C93.819 21.9737 95.3144 21.5722 96.9899 21.5722C98.0205 21.5722 98.9816 21.7208 99.8731 22.018C100.771 22.3088 101.577 22.7388 102.292 23.3078C103.006 23.8706 103.597 24.5598 104.065 25.3754C104.533 26.1847 104.849 27.111 105.014 28.1543ZM111.129 32.6119V41.2615H108.293V21.8378H111.091V29.0648H111.271C111.612 28.2808 112.134 27.658 112.836 27.1964C113.538 26.7348 114.454 26.504 115.586 26.504C116.585 26.504 117.458 26.7095 118.204 27.1205C118.956 27.5315 119.538 28.1448 119.949 28.9605C120.366 29.7698 120.575 30.7814 120.575 31.9954V41.2615H117.739V32.3369C117.739 31.2683 117.464 30.44 116.914 29.852C116.364 29.2576 115.599 28.9605 114.619 28.9605C113.949 28.9605 113.348 29.1027 112.817 29.3872C112.292 29.6718 111.878 30.0891 111.574 30.6392C111.277 31.1829 111.129 31.8405 111.129 32.6119ZM128.599 41.584C127.675 41.584 126.841 41.4133 126.095 41.0718C125.349 40.7241 124.757 40.2214 124.321 39.5639C123.891 38.9063 123.676 38.1001 123.676 37.1454C123.676 36.3234 123.834 35.6469 124.15 35.1157C124.467 34.5846 124.893 34.1642 125.431 33.8543C125.968 33.5445 126.569 33.3106 127.233 33.1525C127.897 32.9944 128.573 32.8743 129.262 32.7921C130.135 32.6909 130.843 32.6087 131.387 32.5455C131.931 32.476 132.326 32.3653 132.572 32.2136C132.819 32.0618 132.942 31.8152 132.942 31.4738V31.4074C132.942 30.5791 132.708 29.9373 132.241 29.4821C131.779 29.0268 131.09 28.7992 130.173 28.7992C129.218 28.7992 128.466 29.011 127.916 29.4347C127.372 29.852 126.996 30.3167 126.787 30.8289L124.122 30.2219C124.438 29.3367 124.9 28.6222 125.507 28.0784C126.12 27.5283 126.825 27.13 127.622 26.8834C128.418 26.6305 129.256 26.504 130.135 26.504C130.717 26.504 131.333 26.5736 131.984 26.7127C132.642 26.8455 133.255 27.0921 133.824 27.4525C134.4 27.8129 134.871 28.3282 135.238 28.9984C135.604 29.6623 135.788 30.5254 135.788 31.5876V41.2615H133.018V39.2698H132.904C132.721 39.6366 132.446 39.997 132.079 40.351C131.713 40.7051 131.242 40.9991 130.666 41.2331C130.091 41.467 129.402 41.584 128.599 41.584ZM129.215 39.3078C129.999 39.3078 130.669 39.1529 131.226 38.843C131.788 38.5332 132.215 38.1286 132.506 37.6291C132.803 37.1232 132.952 36.5826 132.952 36.0073V34.1294C132.851 34.2305 132.655 34.3254 132.364 34.4139C132.079 34.4961 131.754 34.5688 131.387 34.632C131.02 34.6889 130.663 34.7427 130.315 34.7933C129.967 34.8375 129.677 34.8755 129.443 34.9071C128.893 34.9766 128.39 35.0936 127.935 35.258C127.486 35.4224 127.125 35.6595 126.853 35.9693C126.588 36.2728 126.455 36.6775 126.455 37.1833C126.455 37.8851 126.714 38.4163 127.233 38.7767C127.751 39.1307 128.412 39.3078 129.215 39.3078ZM142.401 32.6119V41.2615H139.565V26.6937H142.287V29.0648H142.467C142.802 28.2934 143.327 27.6738 144.041 27.2059C144.762 26.738 145.669 26.504 146.763 26.504C147.756 26.504 148.625 26.7127 149.371 27.13C150.118 27.541 150.696 28.1543 151.107 28.9699C151.518 29.7856 151.724 30.7941 151.724 31.9954V41.2615H148.888V32.3369C148.888 31.2809 148.613 30.4558 148.063 29.8615C147.513 29.2608 146.757 28.9605 145.796 28.9605C145.138 28.9605 144.553 29.1027 144.041 29.3872C143.535 29.6718 143.134 30.0891 142.837 30.6392C142.546 31.1829 142.401 31.8405 142.401 32.6119ZM161.635 47.028C160.478 47.028 159.482 46.8762 158.647 46.5727C157.819 46.2692 157.142 45.8677 156.617 45.3682C156.093 44.8687 155.701 44.3218 155.441 43.7274L157.879 42.7221C158.05 43.0003 158.277 43.2943 158.562 43.6041C158.853 43.9203 159.245 44.189 159.738 44.4103C160.237 44.6316 160.879 44.7423 161.663 44.7423C162.738 44.7423 163.626 44.4799 164.328 43.9551C165.03 43.4366 165.381 42.6083 165.381 41.4702V38.6059H165.201C165.03 38.9158 164.783 39.2604 164.461 39.6397C164.145 40.0191 163.708 40.3479 163.152 40.6261C162.596 40.9043 161.872 41.0434 160.98 41.0434C159.829 41.0434 158.792 40.7747 157.869 40.2372C156.953 39.6935 156.225 38.8936 155.688 37.8377C155.157 36.7755 154.891 35.4698 154.891 33.9207C154.891 32.3716 155.154 31.0438 155.678 29.9373C156.21 28.8308 156.937 27.9836 157.86 27.3956C158.783 26.8012 159.829 26.504 160.999 26.504C161.903 26.504 162.634 26.6558 163.19 26.9593C163.746 27.2565 164.18 27.6042 164.489 28.0025C164.805 28.4009 165.049 28.7518 165.22 29.0553H165.428V26.6937H168.207V41.584C168.207 42.8359 167.916 43.8634 167.335 44.6664C166.753 45.4694 165.966 46.0637 164.973 46.4494C163.987 46.8351 162.874 47.028 161.635 47.028ZM161.606 38.6913C162.422 38.6913 163.111 38.5016 163.674 38.1222C164.243 37.7366 164.673 37.1865 164.964 36.472C165.261 35.7512 165.409 34.8881 165.409 33.8828C165.409 32.9027 165.264 32.0397 164.973 31.2936C164.682 30.5475 164.255 29.9658 163.693 29.5485C163.13 29.1248 162.434 28.913 161.606 28.913C160.753 28.913 160.041 29.1343 159.472 29.5769C158.903 30.0132 158.473 30.6076 158.182 31.36C157.898 32.1124 157.756 32.9533 157.756 33.8828C157.756 34.8375 157.901 35.6753 158.192 36.3961C158.483 37.1169 158.913 37.6796 159.482 38.0843C160.057 38.489 160.765 38.6913 161.606 38.6913ZM178.289 41.5555C176.854 41.5555 175.618 41.2489 174.581 40.6356C173.55 40.0159 172.753 39.1465 172.191 38.0274C171.634 36.9019 171.356 35.5836 171.356 34.0725C171.356 32.5803 171.634 31.2651 172.191 30.127C172.753 28.9889 173.537 28.1005 174.543 27.4619C175.554 26.8233 176.737 26.504 178.09 26.504C178.912 26.504 179.708 26.64 180.48 26.9119C181.251 27.1837 181.944 27.6105 182.557 28.1922C183.17 28.7739 183.654 29.5295 184.008 30.459C184.362 31.3821 184.539 32.5044 184.539 33.8259V34.8312H172.959V32.7067H181.76C181.76 31.9606 181.608 31.2999 181.305 30.7245C181.001 30.1428 180.575 29.6844 180.025 29.3493C179.481 29.0142 178.842 28.8466 178.109 28.8466C177.312 28.8466 176.617 29.0427 176.022 29.4347C175.434 29.8204 174.979 30.3262 174.656 30.9521C174.34 31.5718 174.182 32.2452 174.182 32.9723V34.632C174.182 35.6058 174.353 36.434 174.694 37.1169C175.042 37.7998 175.526 38.3214 176.145 38.6818C176.765 39.0359 177.489 39.2129 178.317 39.2129C178.855 39.2129 179.345 39.1371 179.787 38.9853C180.23 38.8272 180.613 38.5933 180.935 38.2835C181.258 37.9737 181.504 37.5911 181.675 37.1359L184.359 37.6196C184.144 38.4099 183.758 39.1023 183.202 39.6966C182.652 40.2847 181.959 40.7431 181.125 41.0718C180.296 41.3943 179.351 41.5555 178.289 41.5555ZM198.602 30.2503L196.032 30.7056C195.924 30.3768 195.753 30.0638 195.519 29.7666C195.292 29.4694 194.982 29.226 194.59 29.0363C194.198 28.8466 193.708 28.7518 193.12 28.7518C192.317 28.7518 191.647 28.932 191.109 29.2924C190.572 29.6465 190.303 30.1049 190.303 30.6676C190.303 31.1545 190.483 31.5465 190.844 31.8437C191.204 32.1408 191.786 32.3843 192.589 32.574L194.903 33.1051C196.243 33.4149 197.242 33.8923 197.9 34.5372C198.558 35.1821 198.886 36.0199 198.886 37.0505C198.886 37.9231 198.633 38.7008 198.128 39.3837C197.628 40.0602 196.929 40.5913 196.032 40.977C195.14 41.3627 194.106 41.5555 192.93 41.5555C191.299 41.5555 189.968 41.2078 188.937 40.5123C187.907 39.8104 187.274 38.8146 187.041 37.5247L189.781 37.1074C189.952 37.8219 190.303 38.3625 190.834 38.7292C191.365 39.0896 192.058 39.2698 192.911 39.2698C193.841 39.2698 194.584 39.077 195.14 38.6913C195.697 38.2993 195.975 37.8219 195.975 37.2592C195.975 36.8039 195.804 36.4214 195.463 36.1116C195.127 35.8018 194.612 35.5678 193.917 35.4097L191.451 34.8691C190.091 34.5593 189.086 34.0661 188.435 33.3896C187.79 32.7131 187.467 31.8563 187.467 30.8194C187.467 29.9595 187.708 29.207 188.188 28.5621C188.669 27.9172 189.333 27.4145 190.18 27.0541C191.027 26.6874 191.998 26.504 193.091 26.504C194.666 26.504 195.905 26.8455 196.809 27.5283C197.713 28.2049 198.311 29.1122 198.602 30.2503Z" fill="white"/>
</svg>
